PathFileType	3	(X/Y/Z)	D:\Jess\PFP\Labelled\PA26\20251029\SRRun01.trc
DataRate	CameraRate	NumFrames	NumMarkers	Units	OrigDataRate	OrigDataStartFrame	OrigNumFrames
250.0	250.0	4	37	mm	250.0	35625	2501
Frame#	Time	C7			T10			CLAV			LSHO			RSHO			LASIS			RASIS			LPSIS			RPSIS			LILCR			RILCR			LGTR			LTHI			LLTHI			LLEP			LMEP			LPSH			LLSH			LDSH			LLMAL			LMMAL			LTOE			L5TH			LHEE			RGTR			RTHI			RLTHI			RLEP			RMEP			RPSH			RLSH			RDSH			RLMAL			RMMAL			RTOE			R5TH			RHEE			
		X1	Y1	Z1	X2	Y2	Z2	X3	Y3	Z3	X4	Y4	Z4	X5	Y5	Z5	X6	Y6	Z6	X7	Y7	Z7	X8	Y8	Z8	X9	Y9	Z9	X10	Y10	Z10	X11	Y11	Z11	X12	Y12	Z12	X13	Y13	Z13	X14	Y14	Z14	X15	Y15	Z15	X16	Y16	Z16	X17	Y17	Z17	X18	Y18	Z18	X19	Y19	Z19	X20	Y20	Z20	X21	Y21	Z21	X22	Y22	Z22	X23	Y23	Z23	X24	Y24	Z24	X25	Y25	Z25	X26	Y26	Z26	X27	Y27	Z27	X28	Y28	Z28	X29	Y29	Z29	X30	Y30	Z30	X31	Y31	Z31	X32	Y32	Z32	X33	Y33	Z33	X34	Y34	Z34	X35	Y35	Z35	X36	Y36	Z36	X37	Y37	Z37	

626	142.496	1067.291485279093	1474.107056520302	-375.3771412668634	1007.62650364322	1273.936937279095	-393.7309309395561	1190.071012322087	1392.962302141381	-317.748830981106	1172.824703616403	1457.026943450539	-471.6528050657322	1056.345150803438	1455.858655520385	-217.0929115638037	1133.329349802588	992.4485912352585	-459.2276626868741	1128.223899480545	1023.472634870352	-232.676842380381	971.7395687425267	1093.149401045369	-380.9778163694775	965.369432154919	1090.900461114403	-333.9410971132318	1109.638834719904	1064.037658203322	-494.1648620187854	1058.683182841938	1095.38096978394	-197.3985251958166	1037.149238802452	905.2586805028438	-518.1368395299835	1046.968745945182	747.9027992113353	-429.2928780453474	877.9308498167539	695.3307726916967	-470.7744893077395	805.9157187950531	579.1143074295968	-452.0839745570198	nan	nan	nan	812.9339933709051	484.9610965322199	-398.9106667302336	678.8519564000266	419.6316885161798	-444.0267281116309	662.9815724583115	306.9403136602651	-392.8543652462051	571.4641144470862	265.4207280929423	-412.6383058100225	nan	nan	nan	615.41070334032	124.3429591879063	-383.0482958867017	562.3670457482106	141.7883582194127	-417.9892359434434	516.3089573149541	312.7141863475157	-362.1062488670588	1060.86271997355	983.5632433921911	-162.2376284938184	1193.815965470719	847.6866564398858	-280.0360517537534	1160.274596828132	701.9220509425478	-211.9811249628019	1212.59599326843	560.0411649612188	-231.9915128888778	nan	nan	nan	1258.699440971684	483.933923945624	-288.9640631207621	1197.566951759594	360.398536454909	-218.4713873130256	1256.326832973667	268.8641548701416	-273.4625223953009	1225.629382382584	157.2584151984923	-249.1211921208814	nan	nan	nan	1363.457286660088	161.3682155155583	-286.322868647161	1334.882254875796	122.9375045979206	-242.5130542645344	1158.842575264369	116.6021498178047	-294.2678131103149	
627	142.5	1067.72926260835	1474.238736555927	-374.9793776214694	1008.377112665805	1274.085249382669	-393.1064741915249	1190.543535695793	1393.208494529112	-317.1277485335931	1173.332755955993	1457.330253796556	-471.112937259778	1056.69566205146	1455.968983135452	-216.6982254266398	1133.649309747089	993.2978952990547	-459.5518724918854	1128.896133957204	1022.87407656724	-232.9797211225471	972.1178208855779	1093.640745906259	-380.635729339701	965.8401013681323	1091.220543751568	-333.609970152346	1109.918793238565	1064.941903422324	-493.9189282835169	1059.560980220542	1094.770006000711	-197.1774300068437	1037.07882442065	906.487250509839	-518.3909538521691	1048.208818972967	748.5238425832604	-430.4209296494046	878.7934051126609	695.5120812346245	-470.5102052733602	807.1994111452242	579.1300660994618	-451.4857290899242	nan	nan	nan	812.1027975710879	484.6803252017108	-398.4266690663396	675.9207393916261	423.0735887307296	-443.2994177774155	656.5404786211717	311.2555589809685	-391.7360056401696	563.9120661229773	272.2087385157773	-412.1174505084316	nan	nan	nan	604.5831371996603	130.7657803037783	-381.3271429206275	552.1493286376377	148.9915180524634	-416.7557320488867	509.4056568612456	320.9607085275733	-362.3611744656615	1061.479211817246	982.630632209904	-162.4811235020938	1192.401021361415	843.8916391415581	-280.7374697702834	1159.082251366398	699.7713550148906	-211.0918819558088	1211.106727809069	558.1263031902325	-231.6941025388313	nan	nan	nan	1258.825906360145	483.2904274189813	-288.7053665533365	1201.015941095214	358.4349464581151	-218.5461981968354	1262.595264243582	268.74450931168	-273.6870156905753	1235.309707636371	156.0893201280787	-249.7325938697817	nan	nan	nan	1372.953430234484	164.619020275807	-286.9840835541384	1345.664333787171	125.0487269907113	-243.3549956537389	1169.762178713613	113.3431897157259	-294.9553666740502	
628	142.504	1068.155647125807	1474.214861371955	-374.5129755647904	1009.020374863738	1274.096793645565	-392.4222096032717	1191.030186194606	1393.254156383804	-316.5381758199922	1173.803758687712	1457.450028007048	-470.6135727420903	1057.098612205874	1455.904563987548	-216.2337236530466	1133.943658731799	994.0595463697865	-459.9194313638312	1129.553156858951	1022.133672852384	-233.3129872784246	972.411443040074	1093.907581605368	-380.2286395072296	966.2384698939919	1091.310341841472	-333.2097707186691	1110.044670826164	1065.754881658802	-493.690925715308	1060.446330908617	1093.973787153559	-196.9584077654098	1037.047155568847	907.5387018448946	-518.6138103632884	1049.603217164537	748.989282253184	-431.4575008011628	879.8933980421587	695.3424329200711	-470.2554406074528	808.7712059779991	578.8102687689882	-450.9048050445628	nan	nan	nan	811.4499551987769	484.1323434477112	-397.9549397044951	673.2369335269718	426.4101004084461	-442.6360620191151	650.3192968857559	315.5523224542117	-390.656361852932	556.6288269383447	279.0280016124349	-411.6743296667206	nan	nan	nan	593.9253305855766	137.311414630922	-379.5631929122898	542.1413453986286	156.299634397143	-415.5124583468859	502.8096607131861	329.2637328200407	-362.7706964263775	1062.029171830708	981.3479825757196	-162.746655125907	1190.926733904555	839.8195803657237	-281.3704772805345	1157.931913311123	697.3789863031202	-210.1419258592107	1209.752729979094	556.1272488474425	-231.4130573115528	nan	nan	nan	1258.851748880094	482.5757213182727	-288.5593666710571	1204.172593592623	356.6210737165495	-218.646626994715	1268.317310050412	268.7088498177765	-273.9110887725568	1244.188745892284	155.1647132316131	-250.3185398777833	nan	nan	nan	1381.564309732547	167.7935599272427	-287.5126815980856	1355.480094562053	127.191999128677	-244.0796864597492	1179.874282681275	110.4496682847213	-295.65266075407	
629	142.508	1068.573362563014	1474.040073093317	-373.9774195724248	1009.545304747087	1273.979116847503	-391.6861993091215	1191.525903150099	1393.097399798288	-315.9814934507107	1174.237378047406	1457.386255962652	-470.1488560633462	1057.554772760391	1455.666620978913	-215.6994054984243	1134.215764744404	994.7186463528221	-460.3222071216953	1130.193458953948	1021.270207982077	-233.6687319817088	972.6261371679919	1093.945734025611	-379.7589272808804	966.5684234834971	1091.167549046462	-332.7430548363212	1110.013915407944	1066.463828451593	-493.4882773711235	1061.324641181689	1093.010706334814	-196.7428039269808	1037.065568775188	908.3894313437307	-518.8003038722361	1051.123818304582	749.2842588093911	-432.3892331630857	881.2077175779044	694.8322324053034	-470.015102234431	810.5998100378416	578.1756869972921	-450.3500706550198	nan	nan	nan	810.967094309341	483.3403484706043	-397.5077654402505	670.8105201462798	429.6472165264292	-442.0468156232364	644.3599271822699	319.8287431818705	-389.6393535234822	549.6633590763813	285.8693247298267	-411.3091819665709	nan	nan	nan	583.4721447748121	143.9540049223643	-377.7854371604595	532.3719412676907	163.7016617184301	-414.2729359376695	496.5988837987564	337.6205673550329	-363.3120791624872	1062.516060791325	979.7421999555607	-163.0277143449212	1189.438364339356	835.5503540378872	-281.9222652676229	1156.829315428031	694.7880033401395	-209.1628431353412	1208.550632449338	554.073164636872	-231.1605344059285	nan	nan	nan	1258.780401164049	481.7997906870559	-288.5370012706774	1207.029877149427	354.942323258194	-218.7692047532164	1273.469672589871	268.7165218407424	-274.1363973341925	1252.221040090138	154.4268188023135	-250.8712043811656	nan	nan	nan	1389.26850942148	170.8191458324818	-287.9127447474107	1364.297057181311	129.2921248722178	-244.685801163044	1189.115166960127	107.8681164508398	-296.3453851387244	
